<svg width="24" height="29" viewBox="0 0 24 29" fill="none" xmlns="http://www.w3.org/2000/svg">
<path fill-rule="evenodd" clip-rule="evenodd" d="M24 18.5V1.5L23 0.5H3.48016C3.02146 0.505075 2.56748 0.593163 2.14017 0.76C1.70944 0.951417 1.32127 1.22693 0.998441 1.57037C0.67561 1.91381 0.424617 2.31826 0.260184 2.76C0.0965925 3.15339 0.00839527 3.57403 0.000185962 4V23C-0.00462145 23.4597 0.0838269 23.9155 0.260184 24.34C0.614181 25.194 1.29018 25.876 2.14017 26.24C2.56748 26.4068 3.02146 26.4949 3.48016 26.5H4.00015V24.5H3.48016C3.2806 24.5006 3.08309 24.4598 2.90016 24.38C2.53808 24.2298 2.25036 23.9421 2.10017 23.58C2.03627 23.3932 2.00251 23.1974 2.00017 23V22C2.00251 21.8026 2.03627 21.6068 2.10017 21.42C2.25036 21.0579 2.53808 20.7702 2.90016 20.62C3.08062 20.5413 3.2753 20.5005 3.47216 20.5H22V24.5H14.0001V26.5H23L24 25.5V18.5ZM4.00015 18.5V2.5H22V18.5H4.00015ZM6.00014 4.5H8.00012V6.5H6.00014V4.5ZM6.00014 8.5H8.00012V10.5H6.00014V8.5ZM8.00012 12.5H6.00014V14.5H8.00012V12.5ZM9.00012 25.48L6.56014 28.5H6.00014V22.5H12.0001V28.5H11.4401L9.00012 25.48Z" fill="white"/>
</svg>
