<svg width="24" height="29" viewBox="0 0 24 29" fill="none" xmlns="http://www.w3.org/2000/svg">
<path d="M5.14453 19.75C5.14453 19.2859 5.32514 18.8408 5.64663 18.5126C5.96813 18.1844 6.40416 18 6.85882 18C7.31347 18 7.74951 18.1844 8.071 18.5126C8.39249 18.8408 8.5731 19.2859 8.5731 19.75V21.5C8.5731 21.9641 8.39249 22.4092 8.071 22.7374C7.74951 23.0656 7.31347 23.25 6.85882 23.25C6.40416 23.25 5.96813 23.0656 5.64663 22.7374C5.32514 22.4092 5.14453 21.9641 5.14453 21.5V19.75ZM15.4302 12.75C15.4302 12.2859 15.6109 11.8408 15.9323 11.5126C16.2538 11.1844 16.6899 11 17.1445 11C17.5992 11 18.0352 11.1844 18.3567 11.5126C18.6782 11.8408 18.8588 12.2859 18.8588 12.75V21.5C18.8588 21.9641 18.6782 22.4092 18.3567 22.7374C18.0352 23.0656 17.5992 23.25 17.1445 23.25C16.6899 23.25 16.2538 23.0656 15.9323 22.7374C15.6109 22.4092 15.4302 21.9641 15.4302 21.5V12.75ZM10.2874 16.25C10.2874 15.7859 10.468 15.3408 10.7895 15.0126C11.111 14.6844 11.547 14.5 12.0017 14.5C12.4563 14.5 12.8924 14.6844 13.2139 15.0126C13.5353 15.3408 13.716 15.7859 13.716 16.25V21.5C13.716 21.9641 13.5353 22.4092 13.2139 22.7374C12.8924 23.0656 12.4563 23.25 12.0017 23.25C11.547 23.25 11.111 23.0656 10.7895 22.7374C10.468 22.4092 10.2874 21.9641 10.2874 21.5V16.25Z" fill="white"/>
<path d="M5.14286 3.125H3.42857C2.51926 3.125 1.64719 3.49375 1.00421 4.15013C0.361224 4.8065 0 5.69674 0 6.625V25C0 25.9283 0.361224 26.8185 1.00421 27.4749C1.64719 28.1313 2.51926 28.5 3.42857 28.5H20.5714C21.4807 28.5 22.3528 28.1313 22.9958 27.4749C23.6388 26.8185 24 25.9283 24 25V6.625C24 5.69674 23.6388 4.8065 22.9958 4.15013C22.3528 3.49375 21.4807 3.125 20.5714 3.125H18.8571V4.875H20.5714C21.0261 4.875 21.4621 5.05937 21.7836 5.38756C22.1051 5.71575 22.2857 6.16087 22.2857 6.625V25C22.2857 25.4641 22.1051 25.9092 21.7836 26.2374C21.4621 26.5656 21.0261 26.75 20.5714 26.75H3.42857C2.97391 26.75 2.53788 26.5656 2.21639 26.2374C1.8949 25.9092 1.71429 25.4641 1.71429 25V6.625C1.71429 6.16087 1.8949 5.71575 2.21639 5.38756C2.53788 5.05937 2.97391 4.875 3.42857 4.875H5.14286V3.125Z" fill="white"/>
<path d="M14.5698 2.25C14.7971 2.25 15.0151 2.34219 15.1758 2.50628C15.3366 2.67038 15.4269 2.89294 15.4269 3.125V4.875C15.4269 5.10706 15.3366 5.32962 15.1758 5.49372C15.0151 5.65781 14.7971 5.75 14.5698 5.75H9.4269C9.19957 5.75 8.98155 5.65781 8.82081 5.49372C8.66006 5.32962 8.56975 5.10706 8.56975 4.875V3.125C8.56975 2.89294 8.66006 2.67038 8.82081 2.50628C8.98155 2.34219 9.19957 2.25 9.4269 2.25H14.5698ZM9.4269 0.5C8.74491 0.5 8.09086 0.776562 7.60862 1.26884C7.12639 1.76113 6.85547 2.42881 6.85547 3.125V4.875C6.85547 5.57119 7.12639 6.23887 7.60862 6.73116C8.09086 7.22344 8.74491 7.5 9.4269 7.5H14.5698C15.2517 7.5 15.9058 7.22344 16.388 6.73116C16.8703 6.23887 17.1412 5.57119 17.1412 4.875V3.125C17.1412 2.42881 16.8703 1.76113 16.388 1.26884C15.9058 0.776562 15.2517 0.5 14.5698 0.5L9.4269 0.5Z" fill="white"/>
</svg>
