<svg width="10" height="11" viewBox="0 0 10 11" fill="none" xmlns="http://www.w3.org/2000/svg">
<path d="M8.03328 0.591495C7.97468 0.532911 7.89521 0.5 7.81235 0.5C7.72949 0.5 7.65002 0.532911 7.59142 0.591495L6.56209 1.62086L8.87887 3.9377L9.9082 2.90897C9.9373 2.87994 9.96038 2.84545 9.97614 2.80749C9.99189 2.76952 10 2.72882 10 2.68772C10 2.64661 9.99189 2.60591 9.97614 2.56795C9.96038 2.52998 9.9373 2.4955 9.9082 2.46647L8.03328 0.591495ZM8.43701 4.37957L6.12024 2.06273L2.05791 6.12518H2.18728C2.27016 6.12518 2.34964 6.1581 2.40824 6.2167C2.46685 6.27531 2.49977 6.35479 2.49977 6.43767V6.75017H2.81226C2.89513 6.75017 2.97461 6.78309 3.03322 6.8417C3.09182 6.9003 3.12474 6.97978 3.12474 7.06266V7.37516H3.43723C3.5201 7.37516 3.59959 7.40808 3.65819 7.46669C3.71679 7.52529 3.74971 7.60478 3.74971 7.68766V8.00015H4.0622C4.14508 8.00015 4.22456 8.03308 4.28316 8.09168C4.34176 8.15028 4.37469 8.22977 4.37469 8.31265V8.44202L8.43701 4.37957ZM3.76971 9.04701C3.75656 9.01204 3.74979 8.975 3.74971 8.93764V8.62514H3.43723C3.35435 8.62514 3.27487 8.59222 3.21627 8.53362C3.15766 8.47501 3.12474 8.39553 3.12474 8.31265V8.00015H2.81226C2.72938 8.00015 2.6499 7.96723 2.59129 7.90862C2.53269 7.85002 2.49977 7.77053 2.49977 7.68766V7.37516H2.18728C2.10441 7.37516 2.02492 7.34224 1.96632 7.28363C1.90772 7.22503 1.8748 7.14554 1.8748 7.06266V6.75017H1.56231C1.52495 6.75011 1.4879 6.74333 1.45294 6.73017L1.34107 6.84142C1.31129 6.87141 1.2879 6.90713 1.27232 6.94642L0.0223778 10.0714C-0.000352856 10.1282 -0.0059173 10.1904 0.00637432 10.2503C0.0186659 10.3102 0.0482731 10.3652 0.0915252 10.4085C0.134777 10.4517 0.189772 10.4813 0.249693 10.4936C0.309613 10.5059 0.371823 10.5004 0.42861 10.4776L3.55347 9.22764C3.59276 9.21206 3.62848 9.18867 3.65847 9.15889L3.76971 9.04701Z" fill="black"/>
</svg>
