<svg width="24" height="25" viewBox="0 0 24 25" fill="none" xmlns="http://www.w3.org/2000/svg">
<path d="M3 15.5H7.5C7.89782 15.5 8.27936 15.658 8.56066 15.9393C8.84196 16.2206 9 16.6022 9 17V21.5C9 21.8978 8.84196 22.2794 8.56066 22.5607C8.27936 22.842 7.89782 23 7.5 23H3C2.60218 23 2.22064 22.842 1.93934 22.5607C1.65804 22.2794 1.5 21.8978 1.5 21.5V17C1.5 16.6022 1.65804 16.2206 1.93934 15.9393C2.22064 15.658 2.60218 15.5 3 15.5ZM16.5 2H21C21.3978 2 21.7794 2.15804 22.0607 2.43934C22.342 2.72064 22.5 3.10218 22.5 3.5V8C22.5 8.39782 22.342 8.77936 22.0607 9.06066C21.7794 9.34196 21.3978 9.5 21 9.5H16.5C16.1022 9.5 15.7206 9.34196 15.4393 9.06066C15.158 8.77936 15 8.39782 15 8V3.5C15 3.10218 15.158 2.72064 15.4393 2.43934C15.7206 2.15804 16.1022 2 16.5 2ZM16.5 15.5C16.1022 15.5 15.7206 15.658 15.4393 15.9393C15.158 16.2206 15 16.6022 15 17V21.5C15 21.8978 15.158 22.2794 15.4393 22.5607C15.7206 22.842 16.1022 23 16.5 23H21C21.3978 23 21.7794 22.842 22.0607 22.5607C22.342 22.2794 22.5 21.8978 22.5 21.5V17C22.5 16.6022 22.342 16.2206 22.0607 15.9393C21.7794 15.658 21.3978 15.5 21 15.5H16.5ZM16.5 0.5C15.7044 0.5 14.9413 0.816071 14.3787 1.37868C13.8161 1.94129 13.5 2.70435 13.5 3.5V8C13.5 8.79565 13.8161 9.55871 14.3787 10.1213C14.9413 10.6839 15.7044 11 16.5 11H21C21.7956 11 22.5587 10.6839 23.1213 10.1213C23.6839 9.55871 24 8.79565 24 8V3.5C24 2.70435 23.6839 1.94129 23.1213 1.37868C22.5587 0.816071 21.7956 0.5 21 0.5L16.5 0.5ZM3 14C2.20435 14 1.44129 14.3161 0.87868 14.8787C0.316071 15.4413 0 16.2044 0 17L0 21.5C0 22.2956 0.316071 23.0587 0.87868 23.6213C1.44129 24.1839 2.20435 24.5 3 24.5H7.5C8.29565 24.5 9.05871 24.1839 9.62132 23.6213C10.1839 23.0587 10.5 22.2956 10.5 21.5V17C10.5 16.2044 10.1839 15.4413 9.62132 14.8787C9.05871 14.3161 8.29565 14 7.5 14H3ZM13.5 17C13.5 16.2044 13.8161 15.4413 14.3787 14.8787C14.9413 14.3161 15.7044 14 16.5 14H21C21.7956 14 22.5587 14.3161 23.1213 14.8787C23.6839 15.4413 24 16.2044 24 17V21.5C24 22.2956 23.6839 23.0587 23.1213 23.6213C22.5587 24.1839 21.7956 24.5 21 24.5H16.5C15.7044 24.5 14.9413 24.1839 14.3787 23.6213C13.8161 23.0587 13.5 22.2956 13.5 21.5V17ZM0 3.5C0 2.70435 0.316071 1.94129 0.87868 1.37868C1.44129 0.816071 2.20435 0.5 3 0.5L7.5 0.5C8.29565 0.5 9.05871 0.816071 9.62132 1.37868C10.1839 1.94129 10.5 2.70435 10.5 3.5V8C10.5 8.79565 10.1839 9.55871 9.62132 10.1213C9.05871 10.6839 8.29565 11 7.5 11H3C2.20435 11 1.44129 10.6839 0.87868 10.1213C0.316071 9.55871 0 8.79565 0 8V3.5ZM8.031 4.781C8.10073 4.71127 8.15605 4.62848 8.19378 4.53737C8.23152 4.44627 8.25095 4.34862 8.25095 4.25C8.25095 4.15138 8.23152 4.05373 8.19378 3.96263C8.15605 3.87152 8.10073 3.78873 8.031 3.719C7.96127 3.64927 7.87848 3.59395 7.78738 3.55622C7.69627 3.51848 7.59862 3.49905 7.5 3.49905C7.40138 3.49905 7.30373 3.51848 7.21262 3.55622C7.12152 3.59395 7.03873 3.64927 6.969 3.719L4.5 6.1895L3.531 5.219C3.46127 5.14927 3.37848 5.09395 3.28737 5.05622C3.19627 5.01848 3.09862 4.99905 3 4.99905C2.90138 4.99905 2.80373 5.01848 2.71263 5.05622C2.62152 5.09395 2.53873 5.14927 2.469 5.219C2.39927 5.28873 2.34395 5.37152 2.30622 5.46263C2.26848 5.55373 2.24905 5.65138 2.24905 5.75C2.24905 5.84862 2.26848 5.94627 2.30622 6.03737C2.34395 6.12848 2.39927 6.21127 2.469 6.281L3.969 7.781C4.03867 7.85084 4.12143 7.90626 4.21255 7.94407C4.30367 7.98188 4.40135 8.00134 4.5 8.00134C4.59865 8.00134 4.69633 7.98188 4.78745 7.94407C4.87857 7.90626 4.96133 7.85084 5.031 7.781L8.031 4.781Z" fill="white"/>
</svg>
