<svg width="18" height="15" viewBox="0 0 18 15" fill="none" xmlns="http://www.w3.org/2000/svg">
<path d="M0 0.75C0 0.551088 0.0790178 0.360322 0.21967 0.21967C0.360322 0.0790178 0.551088 0 0.75 0H17.25C17.4489 0 17.6397 0.0790178 17.7803 0.21967C17.921 0.360322 18 0.551088 18 0.75C18 0.948912 17.921 1.13968 17.7803 1.28033C17.6397 1.42098 17.4489 1.5 17.25 1.5H0.75C0.551088 1.5 0.360322 1.42098 0.21967 1.28033C0.0790178 1.13968 0 0.948912 0 0.75ZM15.969 3.969C16.1098 3.82817 16.3008 3.74905 16.5 3.74905C16.6992 3.74905 16.8902 3.82817 17.031 3.969C17.1718 4.10983 17.2509 4.30084 17.2509 4.5C17.2509 4.69916 17.1718 4.89017 17.031 5.031L14.5605 7.5L17.031 9.969C17.1718 10.1098 17.2509 10.3008 17.2509 10.5C17.2509 10.6992 17.1718 10.8902 17.031 11.031C16.8902 11.1718 16.6992 11.2509 16.5 11.2509C16.3008 11.2509 16.1098 11.1718 15.969 11.031L12.969 8.031C12.8992 7.96133 12.8437 7.87857 12.8059 7.78745C12.7681 7.69633 12.7487 7.59865 12.7487 7.5C12.7487 7.40135 12.7681 7.30367 12.8059 7.21255C12.8437 7.12143 12.8992 7.03867 12.969 6.969L15.969 3.969ZM0 5.25C0 5.05109 0.0790178 4.86032 0.21967 4.71967C0.360322 4.57902 0.551088 4.5 0.75 4.5H9.75C9.94891 4.5 10.1397 4.57902 10.2803 4.71967C10.421 4.86032 10.5 5.05109 10.5 5.25C10.5 5.44891 10.421 5.63968 10.2803 5.78033C10.1397 5.92098 9.94891 6 9.75 6H0.75C0.551088 6 0.360322 5.92098 0.21967 5.78033C0.0790178 5.63968 0 5.44891 0 5.25ZM0 9.75C0 9.55109 0.0790178 9.36032 0.21967 9.21967C0.360322 9.07902 0.551088 9 0.75 9H9.75C9.94891 9 10.1397 9.07902 10.2803 9.21967C10.421 9.36032 10.5 9.55109 10.5 9.75C10.5 9.94891 10.421 10.1397 10.2803 10.2803C10.1397 10.421 9.94891 10.5 9.75 10.5H0.75C0.551088 10.5 0.360322 10.421 0.21967 10.2803C0.0790178 10.1397 0 9.94891 0 9.75ZM0 14.25C0 14.0511 0.0790178 13.8603 0.21967 13.7197C0.360322 13.579 0.551088 13.5 0.75 13.5H17.25C17.4489 13.5 17.6397 13.579 17.7803 13.7197C17.921 13.8603 18 14.0511 18 14.25C18 14.4489 17.921 14.6397 17.7803 14.7803C17.6397 14.921 17.4489 15 17.25 15H0.75C0.551088 15 0.360322 14.921 0.21967 14.7803C0.0790178 14.6397 0 14.4489 0 14.25Z" fill="#666666"/>
</svg>
