<svg width="30" height="31" viewBox="0 0 30 31" fill="none" xmlns="http://www.w3.org/2000/svg">
<path d="M24.0234 13.2734H22.8516C22.7227 13.2734 22.6172 13.3789 22.6172 13.5078V14.6797C22.6172 14.8086 22.7227 14.9141 22.8516 14.9141H24.0234C24.1523 14.9141 24.2578 14.8086 24.2578 14.6797V13.5078C24.2578 13.3789 24.1523 13.2734 24.0234 13.2734ZM24.9609 10.2266H21.4453V4.01562C21.4453 3.88672 21.3398 3.78125 21.2109 3.78125H8.78906C8.66016 3.78125 8.55469 3.88672 8.55469 4.01562V10.2266H5.03906C3.74414 10.2266 2.69531 11.2754 2.69531 12.5703V22.1797C2.69531 22.6982 3.11426 23.1172 3.63281 23.1172H8.55469V26.9844C8.55469 27.1133 8.66016 27.2188 8.78906 27.2188H21.2109C21.3398 27.2188 21.4453 27.1133 21.4453 26.9844V23.1172H26.3672C26.8857 23.1172 27.3047 22.6982 27.3047 22.1797V12.5703C27.3047 11.2754 26.2559 10.2266 24.9609 10.2266ZM10.5469 5.77344H19.4531V10.2266H10.5469V5.77344ZM19.4531 25.2266H10.5469V17.1406H19.4531V25.2266ZM25.3125 21.125H21.4453V15.1484H8.55469V21.125H4.6875V12.5703C4.6875 12.377 4.8457 12.2188 5.03906 12.2188H24.9609C25.1543 12.2188 25.3125 12.377 25.3125 12.5703V21.125Z" fill="white"/>
</svg>
