<svg width="24" height="19" viewBox="0 0 24 19" fill="none" xmlns="http://www.w3.org/2000/svg">
<path d="M9 9.5C10.1935 9.5 11.3381 9.02589 12.182 8.18198C13.0259 7.33807 13.5 6.19347 13.5 5C13.5 3.80653 13.0259 2.66193 12.182 1.81802C11.3381 0.974106 10.1935 0.5 9 0.5C7.80653 0.5 6.66193 0.974106 5.81802 1.81802C4.97411 2.66193 4.5 3.80653 4.5 5C4.5 6.19347 4.97411 7.33807 5.81802 8.18198C6.66193 9.02589 7.80653 9.5 9 9.5ZM1.5 18.5C1.5 18.5 0 18.5 0 17C0 15.5 1.5 11 9 11C16.5 11 18 15.5 18 17C18 18.5 16.5 18.5 16.5 18.5H1.5ZM16.5 2.75C16.5 2.55109 16.579 2.36032 16.7197 2.21967C16.8603 2.07902 17.0511 2 17.25 2H23.25C23.4489 2 23.6397 2.07902 23.7803 2.21967C23.921 2.36032 24 2.55109 24 2.75C24 2.94891 23.921 3.13968 23.7803 3.28033C23.6397 3.42098 23.4489 3.5 23.25 3.5H17.25C17.0511 3.5 16.8603 3.42098 16.7197 3.28033C16.579 3.13968 16.5 2.94891 16.5 2.75ZM17.25 6.5C17.0511 6.5 16.8603 6.57902 16.7197 6.71967C16.579 6.86032 16.5 7.05109 16.5 7.25C16.5 7.44891 16.579 7.63968 16.7197 7.78033C16.8603 7.92098 17.0511 8 17.25 8H23.25C23.4489 8 23.6397 7.92098 23.7803 7.78033C23.921 7.63968 24 7.44891 24 7.25C24 7.05109 23.921 6.86032 23.7803 6.71967C23.6397 6.57902 23.4489 6.5 23.25 6.5H17.25ZM20.25 11C20.0511 11 19.8603 11.079 19.7197 11.2197C19.579 11.3603 19.5 11.5511 19.5 11.75C19.5 11.9489 19.579 12.1397 19.7197 12.2803C19.8603 12.421 20.0511 12.5 20.25 12.5H23.25C23.4489 12.5 23.6397 12.421 23.7803 12.2803C23.921 12.1397 24 11.9489 24 11.75C24 11.5511 23.921 11.3603 23.7803 11.2197C23.6397 11.079 23.4489 11 23.25 11H20.25ZM20.25 15.5C20.0511 15.5 19.8603 15.579 19.7197 15.7197C19.579 15.8603 19.5 16.0511 19.5 16.25C19.5 16.4489 19.579 16.6397 19.7197 16.7803C19.8603 16.921 20.0511 17 20.25 17H23.25C23.4489 17 23.6397 16.921 23.7803 16.7803C23.921 16.6397 24 16.4489 24 16.25C24 16.0511 23.921 15.8603 23.7803 15.7197C23.6397 15.579 23.4489 15.5 23.25 15.5H20.25Z" fill="white"/>
</svg>
